<svg width="120" height="13" viewBox="0 0 120 13" fill="none" xmlns="http://www.w3.org/2000/svg">
<path d="M3.21212 12.348H0.620117V0.234H5.28212C8.01812 0.234 10.1241 1.512 10.1241 4.086C10.1241 5.742 9.15212 7.02 7.60412 7.434C8.37812 7.866 8.82812 8.694 9.45812 9.954L10.6281 12.348H7.78412L6.70412 10.188C6.14612 9.072 5.62412 8.478 4.25612 8.478H3.23012L3.21212 12.348ZM5.31812 2.664H3.24812L4.50012 4.84802L5.28212 6.138C6.52412 6.138 7.42412 5.49 7.42412 4.356C7.42412 3.168 6.50612 2.664 5.31812 2.664Z" fill="#323238"/>
<path d="M21.7234 12.348H15.2074C13.5334 12.348 12.8854 11.484 12.8854 10.098V2.502C12.8854 1.116 13.5334 0.234 15.2074 0.234H21.6154V2.592H15.5134V5.112H21.2374V7.47H15.5134V9.99H21.7234V12.348Z" fill="#323238"/>
<path d="M28.7619 12.6C27.3579 12.6 26.4939 11.862 26.0259 10.368L22.9119 0.234H25.6119L28.4019 9.612C28.4739 9.846 28.5999 9.972 28.7799 9.972C28.9599 9.972 29.0679 9.846 29.1399 9.612L31.9119 0.234H34.6119L31.4979 10.368C31.0299 11.862 30.1659 12.6 28.7619 12.6Z" fill="#323238"/>
<path d="M45.1199 12.348H38.6039C36.9299 12.348 36.2819 11.484 36.2819 10.098V2.502C36.2819 1.116 36.9299 0.234 38.6039 0.234H45.0119V2.592H38.9099V5.112H44.6339V7.47H38.9099V9.99H45.1199V12.348Z" fill="#323238"/>
<path d="M50.3223 0.234V9.918H55.9743V12.348H50.0163C48.3423 12.348 47.6943 11.484 47.6943 10.098V0.234H50.3223Z" fill="#323238"/>
<path d="M63.0766 12.582C59.4946 12.582 56.7766 9.882 56.7766 6.3C56.7766 2.736 59.4946 0.0179998 63.0766 0.0179998C66.6766 0.0179998 69.3946 2.736 69.3946 6.3C69.3946 9.882 66.6586 12.582 63.0766 12.582ZM63.0766 10.098C65.0926 10.098 66.6766 8.442 66.6766 6.3C66.6766 4.158 65.1106 2.502 63.0766 2.502C61.0606 2.502 59.4766 4.158 59.4766 6.3C59.4766 8.442 61.0606 10.098 63.0766 10.098Z" fill="#323238"/>
<path d="M74.1202 12.348H71.4922V2.502C71.4922 1.116 72.1582 0.234 73.8142 0.234H80.1862V2.664H74.1202V5.832H79.7722V8.244H74.1202V12.348Z" fill="#323238"/>
<path d="M84.8077 12.348H82.1797V2.502C82.1797 1.116 82.8457 0.234 84.5017 0.234H90.8737V2.664H84.8077V5.832H90.4597V8.244H84.8077V12.348Z" fill="#323238"/>
<path d="M92.9932 0.234H95.6212V12.348H92.9932V0.234Z" fill="#323238"/>
<path d="M104.139 12.6C100.611 12.6 97.8567 9.81 97.8567 6.3C97.8567 2.79 100.611 0 104.139 0C106.245 0 108.261 1.116 109.161 3.006L107.019 4.212C106.425 3.168 105.489 2.502 104.031 2.502C102.015 2.502 100.557 4.104 100.557 6.3C100.557 8.496 101.997 10.098 104.031 10.098C105.489 10.098 106.461 9.432 107.019 8.388L109.161 9.594C108.261 11.484 106.245 12.6 104.139 12.6Z" fill="#323238"/>
<path d="M119.686 12.348H113.17C111.496 12.348 110.848 11.484 110.848 10.098V2.502C110.848 1.116 111.496 0.234 113.17 0.234H119.578V2.592H113.476V5.112H119.2V7.47H113.476V9.99H119.686V12.348Z" fill="#323238"/>
</svg>
